# xmcd
#
# Track frame offsets:
#	150
#	13441
#	25184
#	36047
#	49522
#	59971
#	71500
#	85095
#	95819
#	110823
#	120108
#	130650
#	152941
#	166747
#	179063
#
# Disc length: 2595 seconds
#
# Revision: 0
# Processed by: cddbd v1.5.2PL0 Copyright (c) Steve Scherf et al.
# Submitted via: audiograbber 1.83.01
#
DISCID=ce0a210f
DTITLE=Various Artist - The Soul Story: Volume 7 - Disc 2
DYEAR=2006
DGENRE=Soul
TTITLE0=Marvin Gaye - Too Busy Thinking About My Baby
TTITLE1=Inez Foxx and Charlie Foxx - Mockingbird
TTITLE2=Bobby Bland - I'll Take Care Of You
TTITLE3=Jr. Walker and the All Stars - Shotgun
TTITLE4=Irma Thomas - Wish Someone Would Care
TTITLE5=The Temptations - Ain't Too Proud To Beg
TTITLE6=Gene Chandler - Rainbow '65 (Part 1)
TTITLE7=The Impressions - We're A Winner
TTITLE8=Jackie Ross - Selfish One
TTITLE9=Jan Bradley - Mama Didn't Lie
TTITLE10=Major Lance - Um, Um, Um, Um, Um, Um
TTITLE11=Billy Stewart - Summertime
TTITLE12=O. V. Wright - Eight Men, Four Women
TTITLE13=Edwin Starr - Agent Double-O Soul
TTITLE14=Harold Melvin and the Blue Notes - If You Don't Know Me By Now
EXTD=
EXTT0=
EXTT1=
EXTT2=
EXTT3=
EXTT4=
EXTT5=
EXTT6=
EXTT7=
EXTT8=
EXTT9=
EXTT10=
EXTT11=
EXTT12=
EXTT13=
EXTT14=
PLAYORDER=
